{
	"asset":{
		"generator":"Khronos glTF Blender I/O v4.2.57",
		"version":"2.0"
	},
	"scene":0,
	"scenes":[
		{
			"name":"Scene",
			"nodes":[
				0,
				1,
				2,
				3,
				4
			]
		}
	],
	"nodes":[
		{
			"mesh":0,
			"name":"Body",
			"translation":[
				0.0061106993816792965,
				0.10169140249490738,
				-0.14473511278629303
			]
		},
		{
			"mesh":1,
			"name":"Front_Left",
			"rotation":[
				-0.9297096729278564,
				0,
				0,
				0.36829352378845215
			],
			"translation":[
				0.09794184565544128,
				0.0416901521384716,
				-0.000757591100409627
			]
		},
		{
			"mesh":2,
			"name":"Front_Right",
			"translation":[
				-0.0979141891002655,
				0.041570715606212616,
				0.0006526708020828664
			]
		},
		{
			"mesh":3,
			"name":"Back_Right",
			"translation":[
				-0.09791990369558334,
				0.04047796502709389,
				-0.34779489040374756
			]
		},
		{
			"mesh":4,
			"name":"Back_Left",
			"rotation":[
				0.6815907955169678,
				0,
				0,
				0.7317335605621338
			],
			"translation":[
				0.09771497547626495,
				0.0416337288916111,
				-0.3481318950653076
			]
		}
	],
	"materials":[
		{
			"doubleSided":true,
			"name":"__Mesh_009_a8fab018_LODx255_MatID16_Group0_DisplayMode67_000",
			"pbrMetallicRoughness":{
				"baseColorTexture":{
					"index":0
				},
				"metallicRoughnessTexture":{
					"index":1
				}
			}
		},
		{
			"alphaMode":"BLEND",
			"doubleSided":true,
			"name":"__Mesh_001_a8fab018_LODx255_MatID0_Group0_DisplayMode3_0_001",
			"pbrMetallicRoughness":{
				"baseColorFactor":[
					0,
					0,
					0,
					0.800000011920929
				],
				"metallicFactor":0,
				"roughnessFactor":0
			}
		},
		{
			"doubleSided":true,
			"name":"__Mesh_018_a8fab018_LODx255_MatID48_Group0_DisplayMode67_000",
			"pbrMetallicRoughness":{
				"baseColorTexture":{
					"index":2
				},
				"metallicFactor":0,
				"roughnessFactor":0.788031816482544
			}
		},
		{
			"doubleSided":true,
			"name":"__Mesh_020_a8fab018_LODx255_MatID48_Group9_DisplayMode3__000",
			"pbrMetallicRoughness":{
				"baseColorTexture":{
					"index":3
				},
				"metallicFactor":0,
				"roughnessFactor":0.788031816482544
			}
		},
		{
			"doubleSided":true,
			"emissiveFactor":[
				1,
				1,
				1
			],
			"emissiveTexture":{
				"index":4
			},
			"name":"__Mesh_023_a8fab018_LODx255_MatID80_Group0_DisplayMode67_000",
			"pbrMetallicRoughness":{
				"baseColorTexture":{
					"index":5
				},
				"metallicFactor":0,
				"roughnessFactor":0
			}
		},
		{
			"alphaMode":"BLEND",
			"doubleSided":true,
			"name":"__Mesh_038_a8fab018_LODx255_MatID128_Group0_DisplayMode3_000",
			"pbrMetallicRoughness":{
				"baseColorTexture":{
					"index":6
				},
				"metallicFactor":0,
				"roughnessFactor":0.788031816482544
			}
		},
		{
			"alphaMode":"BLEND",
			"doubleSided":true,
			"name":"__Mesh_039_a8fab018_LODx255_MatID128_Group8_DisplayMode3_000",
			"pbrMetallicRoughness":{
				"baseColorTexture":{
					"index":7
				},
				"metallicFactor":0,
				"roughnessFactor":0.788031816482544
			}
		},
		{
			"doubleSided":true,
			"name":"__Mesh_011_a8fab018_LODx255_MatID16_Group9_DisplayMode67_000",
			"pbrMetallicRoughness":{
				"baseColorFactor":[
					0.800000011920929,
					0.800000011920929,
					0.800000011920929,
					1
				],
				"metallicFactor":0,
				"roughnessFactor":0.788031816482544
			}
		},
		{
			"doubleSided":true,
			"name":"__Mesh_010_a8fab018_LODx255_MatID16_Group8_DisplayMode67_000",
			"pbrMetallicRoughness":{
				"baseColorTexture":{
					"index":8
				},
				"metallicFactor":0,
				"roughnessFactor":0.788031816482544
			}
		},
		{
			"doubleSided":true,
			"name":"__Mesh_014_a8fab018_LODx255_MatID32_Group0_DisplayMode67_000",
			"pbrMetallicRoughness":{
				"baseColorTexture":{
					"index":9
				},
				"metallicFactor":0
			}
		}
	],
	"meshes":[
		{
			"name":"Object_14",
			"primitives":[
				{
					"attributes":{
						"POSITION":0,
						"NORMAL":1,
						"TEXCOORD_0":2
					},
					"indices":3,
					"material":0
				},
				{
					"attributes":{
						"POSITION":4,
						"NORMAL":5,
						"TEXCOORD_0":6
					},
					"indices":7,
					"material":1
				},
				{
					"attributes":{
						"POSITION":8,
						"NORMAL":9,
						"TEXCOORD_0":10
					},
					"indices":11,
					"material":2
				},
				{
					"attributes":{
						"POSITION":12,
						"NORMAL":13,
						"TEXCOORD_0":14
					},
					"indices":15,
					"material":3
				},
				{
					"attributes":{
						"POSITION":16,
						"NORMAL":17,
						"TEXCOORD_0":18
					},
					"indices":19,
					"material":4
				},
				{
					"attributes":{
						"POSITION":20,
						"NORMAL":21,
						"TEXCOORD_0":22
					},
					"indices":23,
					"material":5
				},
				{
					"attributes":{
						"POSITION":24,
						"NORMAL":25,
						"TEXCOORD_0":26
					},
					"indices":27,
					"material":6
				},
				{
					"attributes":{
						"POSITION":28,
						"NORMAL":29,
						"TEXCOORD_0":30
					},
					"indices":31,
					"material":7
				},
				{
					"attributes":{
						"POSITION":32,
						"NORMAL":33,
						"TEXCOORD_0":34
					},
					"indices":35,
					"material":8
				},
				{
					"attributes":{
						"POSITION":36,
						"NORMAL":37,
						"TEXCOORD_0":38
					},
					"indices":39,
					"material":9
				}
			]
		},
		{
			"name":"Object_24",
			"primitives":[
				{
					"attributes":{
						"POSITION":40,
						"NORMAL":41,
						"TEXCOORD_0":42
					},
					"indices":43,
					"material":0
				}
			]
		},
		{
			"name":"Object_25",
			"primitives":[
				{
					"attributes":{
						"POSITION":44,
						"NORMAL":45,
						"TEXCOORD_0":46
					},
					"indices":47,
					"material":2
				}
			]
		},
		{
			"name":"Object_19.002",
			"primitives":[
				{
					"attributes":{
						"POSITION":48,
						"NORMAL":49,
						"TEXCOORD_0":50
					},
					"indices":51,
					"material":2
				}
			]
		},
		{
			"name":"Object_26.001",
			"primitives":[
				{
					"attributes":{
						"POSITION":52,
						"NORMAL":53,
						"TEXCOORD_0":54
					},
					"indices":55,
					"material":2
				}
			]
		}
	],
	"textures":[
		{
			"sampler":0,
			"source":0
		},
		{
			"sampler":0,
			"source":1
		},
		{
			"sampler":0,
			"source":0
		},
		{
			"sampler":0,
			"source":2
		},
		{
			"sampler":0,
			"source":0
		},
		{
			"sampler":0,
			"source":0
		},
		{
			"sampler":0,
			"source":3
		},
		{
			"sampler":0,
			"source":4
		},
		{
			"sampler":0,
			"source":5
		},
		{
			"sampler":0,
			"source":0
		}
	],
	"images":[
		{
			"mimeType":"image/jpeg",
			"name":"7_Mesh-009-a8fab018-LODx255-MatID16-Group0-DisplayMode67.000_baseColor",
			"uri":"7_Mesh-009-a8fab018-LODx255-MatID16-Group0-DisplayMode67_000_baseColor.jpg"
		},
		{
			"mimeType":"image/png",
			"name":"7_Mesh-009-a8fab018-LODx255-MatID16-Group0-DisplayMode67-7_Mesh-009-a8fab018-LODx255-MatID16-Group0-DisplayMode67",
			"uri":"7_Mesh-009-a8fab018-LODx255-MatID16-Group0-DisplayMode67-7_Mesh-009-a8fab018-LODx255-MatID16-Group0-DisplayMode67.png"
		},
		{
			"mimeType":"image/jpeg",
			"name":"7_Mesh-020-a8fab018-LODx255-MatID48-Group9-DisplayMode3_.000_baseColor",
			"uri":"7_Mesh-020-a8fab018-LODx255-MatID48-Group9-DisplayMode3__000_baseColor.jpg"
		},
		{
			"mimeType":"image/png",
			"name":"7_Mesh-038-a8fab018-LODx255-MatID128-Group0-DisplayMode3.000_baseColor_cutoff77",
			"uri":"7_Mesh-038-a8fab018-LODx255-MatID128-Group0-DisplayMode3_000_baseColor_cutoff77.png"
		},
		{
			"mimeType":"image/png",
			"name":"7_Mesh-039-a8fab018-LODx255-MatID128-Group8-DisplayMode3.000_baseColor_cutoff77",
			"uri":"7_Mesh-039-a8fab018-LODx255-MatID128-Group8-DisplayMode3_000_baseColor_cutoff77.png"
		},
		{
			"mimeType":"image/jpeg",
			"name":"7_Mesh-010-a8fab018-LODx255-MatID16-Group8-DisplayMode67.000_baseColor",
			"uri":"7_Mesh-010-a8fab018-LODx255-MatID16-Group8-DisplayMode67_000_baseColor.jpg"
		}
	],
	"accessors":[
		{
			"bufferView":0,
			"componentType":5126,
			"count":1990,
			"max":[
				0.10779830068349838,
				0.08376059681177139,
				0.2890891134738922
			],
			"min":[
				-0.12004269659519196,
				-0.07958739995956421,
				-0.337804913520813
			],
			"type":"VEC3"
		},
		{
			"bufferView":1,
			"componentType":5126,
			"count":1990,
			"type":"VEC3"
		},
		{
			"bufferView":2,
			"componentType":5126,
			"count":1990,
			"type":"VEC2"
		},
		{
			"bufferView":3,
			"componentType":5123,
			"count":6708,
			"type":"SCALAR"
		},
		{
			"bufferView":4,
			"componentType":5126,
			"count":319,
			"max":[
				0.09273429960012436,
				0.0675365999341011,
				0.12153211236000061
			],
			"min":[
				-0.10503869503736496,
				0.011518597602844238,
				-0.24813388288021088
			],
			"type":"VEC3"
		},
		{
			"bufferView":5,
			"componentType":5126,
			"count":319,
			"type":"VEC3"
		},
		{
			"bufferView":6,
			"componentType":5126,
			"count":319,
			"type":"VEC2"
		},
		{
			"bufferView":7,
			"componentType":5123,
			"count":1020,
			"type":"SCALAR"
		},
		{
			"bufferView":8,
			"componentType":5126,
			"count":825,
			"max":[
				0.11714230477809906,
				0.07205159217119217,
				0.2708181142807007
			],
			"min":[
				-0.1294277012348175,
				-0.07958739995956421,
				-0.32623088359832764
			],
			"type":"VEC3"
		},
		{
			"bufferView":9,
			"componentType":5126,
			"count":825,
			"type":"VEC3"
		},
		{
			"bufferView":10,
			"componentType":5126,
			"count":825,
			"type":"VEC2"
		},
		{
			"bufferView":11,
			"componentType":5123,
			"count":2334,
			"type":"SCALAR"
		},
		{
			"bufferView":12,
			"componentType":5126,
			"count":1951,
			"max":[
				0.08757629990577698,
				0.06709659844636917,
				0.12153211236000061
			],
			"min":[
				-0.10432469844818115,
				-0.07614339888095856,
				-0.24813388288021088
			],
			"type":"VEC3"
		},
		{
			"bufferView":13,
			"componentType":5126,
			"count":1951,
			"type":"VEC3"
		},
		{
			"bufferView":14,
			"componentType":5126,
			"count":1951,
			"type":"VEC2"
		},
		{
			"bufferView":15,
			"componentType":5123,
			"count":6087,
			"type":"SCALAR"
		},
		{
			"bufferView":16,
			"componentType":5126,
			"count":16,
			"max":[
				0.0695733055472374,
				0.08376059681177139,
				-0.04049588739871979
			],
			"min":[
				-0.08181770145893097,
				0.07547659426927567,
				-0.07083888351917267
			],
			"type":"VEC3"
		},
		{
			"bufferView":17,
			"componentType":5126,
			"count":16,
			"type":"VEC3"
		},
		{
			"bufferView":18,
			"componentType":5126,
			"count":16,
			"type":"VEC2"
		},
		{
			"bufferView":19,
			"componentType":5123,
			"count":24,
			"type":"SCALAR"
		},
		{
			"bufferView":20,
			"componentType":5126,
			"count":104,
			"max":[
				0.10804729908704758,
				0.07473059743642807,
				0.17774111032485962
			],
			"min":[
				-0.12029169499874115,
				-0.04449940100312233,
				-0.2878139019012451
			],
			"type":"VEC3"
		},
		{
			"bufferView":21,
			"componentType":5126,
			"count":104,
			"type":"VEC3"
		},
		{
			"bufferView":22,
			"componentType":5126,
			"count":104,
			"type":"VEC2"
		},
		{
			"bufferView":23,
			"componentType":5123,
			"count":306,
			"type":"SCALAR"
		},
		{
			"bufferView":24,
			"componentType":5126,
			"count":17,
			"max":[
				0.10624930262565613,
				-0.006599403917789459,
				0.0870751142501831
			],
			"min":[
				-0.11855369806289673,
				-0.04342840239405632,
				-0.04984588921070099
			],
			"type":"VEC3"
		},
		{
			"bufferView":25,
			"componentType":5126,
			"count":17,
			"type":"VEC3"
		},
		{
			"bufferView":26,
			"componentType":5126,
			"count":17,
			"type":"VEC2"
		},
		{
			"bufferView":27,
			"componentType":5123,
			"count":24,
			"type":"SCALAR"
		},
		{
			"bufferView":28,
			"componentType":5126,
			"count":221,
			"max":[
				0.06218830496072769,
				0.06709659844636917,
				0.12340711057186127
			],
			"min":[
				-0.11830469965934753,
				-0.06671140342950821,
				-0.06330588459968567
			],
			"type":"VEC3"
		},
		{
			"bufferView":29,
			"componentType":5126,
			"count":221,
			"type":"VEC3"
		},
		{
			"bufferView":30,
			"componentType":5126,
			"count":221,
			"type":"VEC2"
		},
		{
			"bufferView":31,
			"componentType":5123,
			"count":576,
			"type":"SCALAR"
		},
		{
			"bufferView":32,
			"componentType":5126,
			"count":96,
			"max":[
				0.10600130259990692,
				0.06709659844636917,
				0.08707111328840256
			],
			"min":[
				0.06639230251312256,
				-0.06671140342950821,
				-0.06325188279151917
			],
			"type":"VEC3"
		},
		{
			"bufferView":33,
			"componentType":5126,
			"count":96,
			"type":"VEC3"
		},
		{
			"bufferView":34,
			"componentType":5126,
			"count":96,
			"type":"VEC2"
		},
		{
			"bufferView":35,
			"componentType":5123,
			"count":192,
			"type":"SCALAR"
		},
		{
			"bufferView":36,
			"componentType":5126,
			"count":59,
			"max":[
				0.09498029947280884,
				0.017697595059871674,
				-0.2909508943557739
			],
			"min":[
				-0.10722469538450241,
				-0.01570640504360199,
				-0.32462388277053833
			],
			"type":"VEC3"
		},
		{
			"bufferView":37,
			"componentType":5126,
			"count":59,
			"type":"VEC3"
		},
		{
			"bufferView":38,
			"componentType":5126,
			"count":59,
			"type":"VEC2"
		},
		{
			"bufferView":39,
			"componentType":5123,
			"count":216,
			"type":"SCALAR"
		},
		{
			"bufferView":40,
			"componentType":5126,
			"count":262,
			"max":[
				0.014705151319503784,
				0.041673850268125534,
				0.04281359165906906
			],
			"min":[
				-0.01835484802722931,
				-0.04244915395975113,
				-0.04132841154932976
			],
			"type":"VEC3"
		},
		{
			"bufferView":41,
			"componentType":5126,
			"count":262,
			"type":"VEC3"
		},
		{
			"bufferView":42,
			"componentType":5126,
			"count":262,
			"type":"VEC2"
		},
		{
			"bufferView":43,
			"componentType":5123,
			"count":1020,
			"type":"SCALAR"
		},
		{
			"bufferView":44,
			"componentType":5126,
			"count":261,
			"max":[
				0.018304191529750824,
				0.04179328680038452,
				0.041403330862522125
			],
			"min":[
				-0.014754809439182281,
				-0.04232971742749214,
				-0.042738672345876694
			],
			"type":"VEC3"
		},
		{
			"bufferView":45,
			"componentType":5126,
			"count":261,
			"type":"VEC3"
		},
		{
			"bufferView":46,
			"componentType":5126,
			"count":261,
			"type":"VEC2"
		},
		{
			"bufferView":47,
			"componentType":5123,
			"count":1020,
			"type":"SCALAR"
		},
		{
			"bufferView":48,
			"componentType":5126,
			"count":261,
			"max":[
				0.018309906125068665,
				0.04288603737950325,
				0.041726887226104736
			],
			"min":[
				-0.014749094843864441,
				-0.04123696684837341,
				-0.042415112257003784
			],
			"type":"VEC3"
		},
		{
			"bufferView":49,
			"componentType":5126,
			"count":261,
			"type":"VEC3"
		},
		{
			"bufferView":50,
			"componentType":5126,
			"count":261,
			"type":"VEC2"
		},
		{
			"bufferView":51,
			"componentType":5123,
			"count":1020,
			"type":"SCALAR"
		},
		{
			"bufferView":52,
			"componentType":5126,
			"count":254,
			"max":[
				0.014932021498680115,
				0.04173027351498604,
				0.042063891887664795
			],
			"min":[
				-0.01812797784805298,
				-0.042392730712890625,
				-0.042078107595443726
			],
			"type":"VEC3"
		},
		{
			"bufferView":53,
			"componentType":5126,
			"count":254,
			"type":"VEC3"
		},
		{
			"bufferView":54,
			"componentType":5126,
			"count":254,
			"type":"VEC2"
		},
		{
			"bufferView":55,
			"componentType":5123,
			"count":1020,
			"type":"SCALAR"
		}
	],
	"bufferViews":[
		{
			"buffer":0,
			"byteLength":23880,
			"byteOffset":0,
			"target":34962
		},
		{
			"buffer":0,
			"byteLength":23880,
			"byteOffset":23880,
			"target":34962
		},
		{
			"buffer":0,
			"byteLength":15920,
			"byteOffset":47760,
			"target":34962
		},
		{
			"buffer":0,
			"byteLength":13416,
			"byteOffset":63680,
			"target":34963
		},
		{
			"buffer":0,
			"byteLength":3828,
			"byteOffset":77096,
			"target":34962
		},
		{
			"buffer":0,
			"byteLength":3828,
			"byteOffset":80924,
			"target":34962
		},
		{
			"buffer":0,
			"byteLength":2552,
			"byteOffset":84752,
			"target":34962
		},
		{
			"buffer":0,
			"byteLength":2040,
			"byteOffset":87304,
			"target":34963
		},
		{
			"buffer":0,
			"byteLength":9900,
			"byteOffset":89344,
			"target":34962
		},
		{
			"buffer":0,
			"byteLength":9900,
			"byteOffset":99244,
			"target":34962
		},
		{
			"buffer":0,
			"byteLength":6600,
			"byteOffset":109144,
			"target":34962
		},
		{
			"buffer":0,
			"byteLength":4668,
			"byteOffset":115744,
			"target":34963
		},
		{
			"buffer":0,
			"byteLength":23412,
			"byteOffset":120412,
			"target":34962
		},
		{
			"buffer":0,
			"byteLength":23412,
			"byteOffset":143824,
			"target":34962
		},
		{
			"buffer":0,
			"byteLength":15608,
			"byteOffset":167236,
			"target":34962
		},
		{
			"buffer":0,
			"byteLength":12174,
			"byteOffset":182844,
			"target":34963
		},
		{
			"buffer":0,
			"byteLength":192,
			"byteOffset":195020,
			"target":34962
		},
		{
			"buffer":0,
			"byteLength":192,
			"byteOffset":195212,
			"target":34962
		},
		{
			"buffer":0,
			"byteLength":128,
			"byteOffset":195404,
			"target":34962
		},
		{
			"buffer":0,
			"byteLength":48,
			"byteOffset":195532,
			"target":34963
		},
		{
			"buffer":0,
			"byteLength":1248,
			"byteOffset":195580,
			"target":34962
		},
		{
			"buffer":0,
			"byteLength":1248,
			"byteOffset":196828,
			"target":34962
		},
		{
			"buffer":0,
			"byteLength":832,
			"byteOffset":198076,
			"target":34962
		},
		{
			"buffer":0,
			"byteLength":612,
			"byteOffset":198908,
			"target":34963
		},
		{
			"buffer":0,
			"byteLength":204,
			"byteOffset":199520,
			"target":34962
		},
		{
			"buffer":0,
			"byteLength":204,
			"byteOffset":199724,
			"target":34962
		},
		{
			"buffer":0,
			"byteLength":136,
			"byteOffset":199928,
			"target":34962
		},
		{
			"buffer":0,
			"byteLength":48,
			"byteOffset":200064,
			"target":34963
		},
		{
			"buffer":0,
			"byteLength":2652,
			"byteOffset":200112,
			"target":34962
		},
		{
			"buffer":0,
			"byteLength":2652,
			"byteOffset":202764,
			"target":34962
		},
		{
			"buffer":0,
			"byteLength":1768,
			"byteOffset":205416,
			"target":34962
		},
		{
			"buffer":0,
			"byteLength":1152,
			"byteOffset":207184,
			"target":34963
		},
		{
			"buffer":0,
			"byteLength":1152,
			"byteOffset":208336,
			"target":34962
		},
		{
			"buffer":0,
			"byteLength":1152,
			"byteOffset":209488,
			"target":34962
		},
		{
			"buffer":0,
			"byteLength":768,
			"byteOffset":210640,
			"target":34962
		},
		{
			"buffer":0,
			"byteLength":384,
			"byteOffset":211408,
			"target":34963
		},
		{
			"buffer":0,
			"byteLength":708,
			"byteOffset":211792,
			"target":34962
		},
		{
			"buffer":0,
			"byteLength":708,
			"byteOffset":212500,
			"target":34962
		},
		{
			"buffer":0,
			"byteLength":472,
			"byteOffset":213208,
			"target":34962
		},
		{
			"buffer":0,
			"byteLength":432,
			"byteOffset":213680,
			"target":34963
		},
		{
			"buffer":0,
			"byteLength":3144,
			"byteOffset":214112,
			"target":34962
		},
		{
			"buffer":0,
			"byteLength":3144,
			"byteOffset":217256,
			"target":34962
		},
		{
			"buffer":0,
			"byteLength":2096,
			"byteOffset":220400,
			"target":34962
		},
		{
			"buffer":0,
			"byteLength":2040,
			"byteOffset":222496,
			"target":34963
		},
		{
			"buffer":0,
			"byteLength":3132,
			"byteOffset":224536,
			"target":34962
		},
		{
			"buffer":0,
			"byteLength":3132,
			"byteOffset":227668,
			"target":34962
		},
		{
			"buffer":0,
			"byteLength":2088,
			"byteOffset":230800,
			"target":34962
		},
		{
			"buffer":0,
			"byteLength":2040,
			"byteOffset":232888,
			"target":34963
		},
		{
			"buffer":0,
			"byteLength":3132,
			"byteOffset":234928,
			"target":34962
		},
		{
			"buffer":0,
			"byteLength":3132,
			"byteOffset":238060,
			"target":34962
		},
		{
			"buffer":0,
			"byteLength":2088,
			"byteOffset":241192,
			"target":34962
		},
		{
			"buffer":0,
			"byteLength":2040,
			"byteOffset":243280,
			"target":34963
		},
		{
			"buffer":0,
			"byteLength":3048,
			"byteOffset":245320,
			"target":34962
		},
		{
			"buffer":0,
			"byteLength":3048,
			"byteOffset":248368,
			"target":34962
		},
		{
			"buffer":0,
			"byteLength":2032,
			"byteOffset":251416,
			"target":34962
		},
		{
			"buffer":0,
			"byteLength":2040,
			"byteOffset":253448,
			"target":34963
		}
	],
	"samplers":[
		{
			"magFilter":9729,
			"minFilter":9987
		}
	],
	"buffers":[
		{
			"byteLength":255488,
			"uri":"Police_Car_3D_Model.bin"
		}
	]
}
